opsz144_wght100.ufo
<glyph name="A" format="2">
	<unicode hex="0041"/>
	<advance width="1273"/>
	<outline>
		<contour>
			<point x="-259.1083984375" y="0" type="line"/>
			<point x="-245.2567749023" y="99.9987792969" type="line"/>
			<point x="-54.7771606445" y="133.9987792969" type="line"/>
			<point x="209.556640625" y="563.7776489258" type="line"/>
			<point x="792.9968261719" y="1526" type="line"/>
			<point x="936.9832763672" y="1515" type="line"/>
			<point x="1025.9763183594" y="561" type="line"/>
			<point x="1081.2701416016" y="124.9987792969" type="line"/>
			<point x="1237.3149414062" y="99.9987792969" type="line"/>
			<point x="1216.5062866211" y="0" type="line"/>
			<point x="675.5236206055" y="0" type="line"/>
			<point x="697.3322753906" y="99.9987792969" type="line"/>
			<point x="897.3770751953" y="123.9987792969" type="line"/>
			<point x="862.6810913086" y="547" type="line"/>
			<point x="891" y="1166" type="line"/>
			<point x="886" y="1287" type="line"/>
			<point x="876" y="1287" type="line"/>
			<point x="799" y="1167" type="line"/>
			<point x="297.4905395508" y="537.6667480469" type="line"/>
			<point x="79.5552978516" y="133.9987792969" type="line"/>
			<point x="288.1219482422" y="99.9987792969" type="line"/>
			<point x="274.270324707" y="0" type="line"/>
		</contour>
		<contour>
			<point x="238.225769043" y="516.8892211914" type="line"/>
			<point x="291.5440063477" y="614.3330078125" type="line"/>
			<point x="576.2561035156" y="518.3327636719" type="line"/>
			<point x="551.2563476562" y="441.2227783203" type="line"/>
		</contour>
		<contour>
			<point x="576.2561035156" y="518.3327636719" type="line"/>
			<point x="948.3370361328" y="612.9996948242" type="line"/>
			<point x="952.137512207" y="521.555847168" type="line"/>
			<point x="551.2563476562" y="441.2227783203" type="line"/>
		</contour>
	</outline>
	<anchor name="bottom" x="523" y="0"/>
	<anchor name="ogonek" x="1098" y="0"/>
	<anchor name="top" x="954" y="1500"/>
	<anchor name="tonos" x="613" y="1500"/>
</glyph>
<glyph name="B" format="2">
	<unicode hex="0042"/>
	<advance width="1257"/>
	<outline>
		<contour>
			<point x="-64.7651977539" y="0" type="line"/>
			<point x="-46.5654296875" y="100.9987792969" type="line"/>
			<point x="135.1969604492" y="125.9987792969" type="line"/>
			<point x="280.9971923828" y="754" type="line"/>
			<point x="386" y="1362" type="line"/>
			<point x="193" y="1386" type="line"/>
			<point x="206" y="1500" type="line"/>
			<point x="814.7940063477" y="1500" type="line" smooth="yes"/>
			<point x="1026.4922485352" y="1500"/>
			<point x="1197.3330078125" y="1316"/>
			<point x="1172.3670654297" y="1163" type="qcurve" smooth="yes"/>
			<point x="1151.4011230469" y="1032"/>
			<point x="958.8590087891" y="835"/>
			<point x="830.7406616211" y="798" type="qcurve"/>
			<point x="828.7406616211" y="791" type="line"/>
			<point x="967.3380126953" y="765"/>
			<point x="1133.8309936523" y="579"/>
			<point x="1094.7969360352" y="394" type="qcurve" smooth="yes"/>
			<point x="1056.6594238281" y="213"/>
			<point x="738.6066894531" y="0"/>
			<point x="501.6826171875" y="0" type="qcurve" smooth="yes"/>
		</contour>
		<contour>
			<point x="310.5301513672" y="118.3327026367" type="line"/>
			<point x="335.3079223633" y="101.2215576172" type="line"/>
			<point x="485.3059082031" y="101.2215576172" type="line" smooth="yes"/>
			<point x="636.8220825195" y="101.2215576172"/>
			<point x="862.3204345703" y="227"/>
			<point x="900.4238891602" y="406" type="qcurve" smooth="yes"/>
			<point x="940.4238891602" y="599"/>
			<point x="771.3664550781" y="740.1115112305"/>
			<point x="648.1944580078" y="739.1115112305" type="qcurve" smooth="yes"/>
			<point x="456.3703613281" y="739.1115112305" type="line"/>
			<point x="441.9259033203" y="731.2225952148" type="line"/>
		</contour>
		<contour>
			<point x="471.9746704102" y="847.888671875" type="line"/>
			<point x="481.3079833984" y="847.3330078125" type="line"/>
			<point x="666.8223266602" y="847.3330078125" type="line" smooth="yes"/>
			<point x="776.4428710938" y="847.3330078125"/>
			<point x="966.1480712891" y="1028"/>
			<point x="991.52734375" y="1176" type="qcurve" smooth="yes"/>
			<point x="1021.9066162109" y="1346"/>
			<point x="845.1058349609" y="1386.1118774414"/>
			<point x="744.6923828125" y="1386.1118774414" type="qcurve" smooth="yes"/>
			<point x="578" y="1380" type="line"/>
			<point x="549" y="1362" type="line"/>
		</contour>
	</outline>
	<anchor name="bottom" x="630" y="0"/>
	<anchor name="top" x="630" y="1500"/>
</glyph>
<glyph name="D" format="2">
	<unicode hex="0044"/>
	<advance width="1493"/>
	<outline>
		<contour>
			<point x="-66.083190918" y="0" type="line"/>
			<point x="-48.8834228516" y="99.9987792969" type="line"/>
			<point x="135.8789672852" y="124.9987792969" type="line"/>
			<point x="283.3858642578" y="759" type="line"/>
			<point x="411.6794433594" y="1362.8013916016" type="line"/>
			<point x="241.6690063477" y="1388.8013916016" type="line"/>
			<point x="253.0905151367" y="1500" type="line"/>
			<point x="824.732421875" y="1500" type="line" smooth="yes"/>
			<point x="1144.6805419922" y="1500"/>
			<point x="1449.9104003906" y="1098"/>
			<point x="1397.0415039062" y="761" type="qcurve" smooth="yes"/>
			<point x="1337.9931640625" y="384"/>
			<point x="854.7708740234" y="0"/>
			<point x="532.5158691406" y="0" type="qcurve" smooth="yes"/>
		</contour>
		<contour>
			<point x="312.2832641602" y="127.4437866211" type="line"/>
			<point x="331.8915405273" y="118.5576782227"/>
			<point x="529.0412597656" y="105.4437866211"/>
			<point x="616.7772216797" y="105.4437866211" type="qcurve" smooth="yes"/>
			<point x="844.4548339844" y="105.4437866211"/>
			<point x="1162.9873046875" y="428.6663818359"/>
			<point x="1214.0817871094" y="772" type="qcurve" smooth="yes"/>
			<point x="1253.774597168" y="1034.8891601562"/>
			<point x="1028.4658203125" y="1380.8896484375"/>
			<point x="811.0411987305" y="1380.8896484375" type="qcurve" smooth="yes"/>
			<point x="771.6969604492" y="1380.8896484375"/>
			<point x="607.0723266602" y="1366.8896484375"/>
			<point x="582.1724243164" y="1363.8896484375" type="qcurve"/>
			<point x="450.7989501953" y="759" type="line"/>
		</contour>
	</outline>
	<anchor name="bottom" x="686" y="0"/>
	<anchor name="center" x="448" y="754"/>
	<anchor name="top" x="827" y="1500"/>
	<anchor name="liga" x="1431" y="0"/>
</glyph>
<glyph name="F" format="2">
	<unicode hex="0046"/>
	<advance width="1125"/>
	<outline>
		<contour>
			<point x="-69.8147583008" y="0" type="line"/>
			<point x="-51.6149902344" y="100.9987792969" type="line"/>
			<point x="141.9690551758" y="126.9987792969" type="line"/>
			<point x="294.9692993164" y="809" type="line"/>
			<point x="411.3695678711" y="1361.8013916016" type="line"/>
			<point x="231.1331787109" y="1388.8013916016" type="line"/>
			<point x="243.5546875" y="1500" type="line"/>
			<point x="1178.9563598633" y="1500" type="line"/>
			<point x="1148.2808227539" y="1211.9742431641" type="line"/>
			<point x="1056.6784057617" y="1211.9742431641" type="line"/>
			<point x="1011.5762939453" y="1398.4451293945" type="line"/>
			<point x="649.0180664062" y="1398.4451293945" type="line"/>
			<point x="588.0180664062" y="1375.4451293945" type="line"/>
			<point x="462.795715332" y="801" type="line"/>
			<point x="313.7954711914" y="123.9987792969" type="line"/>
			<point x="553.2580566406" y="99.9987792969" type="line"/>
			<point x="535.1669921875" y="0" type="line"/>
		</contour>
		<contour>
			<point x="332" y="751" type="line"/>
			<point x="351" y="851" type="line"/>
			<point x="786.5091552734" y="823.7774047852" type="line"/>
			<point x="860.412902832" y="942.2961425781" type="line"/>
			<point x="961.4155883789" y="942.2961425781" type="line"/>
			<point x="875.4700927734" y="542.7038574219" type="line"/>
			<point x="775.4674072266" y="542.7038574219" type="line"/>
			<point x="763.3981933594" y="706.0003662109" type="line"/>
		</contour>
	</outline>
	<anchor name="bottom" x="578" y="0"/>
	<anchor name="top" x="622" y="1500"/>
</glyph>
<glyph name="H" format="2">
	<unicode hex="0048"/>
	<advance width="1610"/>
	<outline>
		<contour>
			<point x="-68.8021240234" y="0" type="line"/>
			<point x="-48.602355957" y="98.9987792969" type="line"/>
			<point x="141.2904052734" y="124.9987792969" type="line"/>
			<point x="290.090637207" y="794" type="line"/>
			<point x="407.8909301758" y="1351.0015258789" type="line"/>
			<point x="230.9674682617" y="1389.0014038086" type="line"/>
			<point x="242.3715820312" y="1500" type="line"/>
			<point x="805.1615600586" y="1500" type="line"/>
			<point x="783.6705322266" y="1389.0014038086" type="line"/>
			<point x="576.50390625" y="1351.0015258789" type="line"/>
			<point x="450.7970581055" y="768" type="line"/>
			<point x="309.9968261719" y="124.9987792969" type="line"/>
			<point x="508.194152832" y="98.9987792969" type="line"/>
			<point x="498.0812988281" y="0" type="line"/>
		</contour>
		<contour>
			<point x="346" y="738" type="line"/>
			<point x="367" y="855" type="line"/>
			<point x="828.1881713867" y="827.6662597656" type="line"/>
			<point x="1259.7397460938" y="833.77734375" type="line"/>
			<point x="1236.4065551758" y="716.2225341797" type="line"/>
			<point x="807.4105224609" y="719.3336181641" type="line"/>
		</contour>
		<contour>
			<point x="816.9006347656" y="0" type="line"/>
			<point x="836.100402832" y="98.9987792969" type="line"/>
			<point x="1029.9931640625" y="124.9987792969" type="line"/>
			<point x="1170.7933959961" y="764" type="line"/>
			<point x="1286.5936889648" y="1351.0015258789" type="line"/>
			<point x="1117.6702270508" y="1387.0014038086" type="line"/>
			<point x="1128.0743408203" y="1500" type="line"/>
			<point x="1675.8490600586" y="1500" type="line"/>
			<point x="1655.3580322266" y="1387.0014038086" type="line"/>
			<point x="1457.3001098633" y="1351.0015258789" type="line"/>
			<point x="1334.9131469727" y="748" type="line"/>
			<point x="1197.1129150391" y="124.9987792969" type="line"/>
			<point x="1383.2015380859" y="98.9987792969" type="line"/>
			<point x="1372.088684082" y="0" type="line"/>
		</contour>
	</outline>
	<anchor name="bottom" x="607" y="0"/>
	<anchor name="center" x="820" y="1079"/>
	<anchor name="top" x="950" y="1500"/>
	<anchor name="tonos" x="81" y="1500"/>
	<anchor name="cy_descender" x="1399" y="100"/>
</glyph>
<glyph name="I" format="2">
	<unicode hex="0049"/>
	<advance width="696"/>
	<outline>
		<contour>
			<point x="-70.694152832" y="0" type="line"/>
			<point x="-50.6030883789" y="100.5987548828" type="line"/>
			<point x="145.0505981445" y="125.5987548828" type="line"/>
			<point x="301.6661987305" y="824" type="line"/>
			<point x="411.3598022461" y="1359.8013916016" type="line"/>
			<point x="232.1667480469" y="1389.8013916016" type="line"/>
			<point x="244.4795532227" y="1500" type="line"/>
			<point x="803.1463012695" y="1500" type="line"/>
			<point x="780.7465820312" y="1389.8013916016" type="line"/>
			<point x="589.0928955078" y="1359.8013916016" type="line"/>
			<point x="468.4926147461" y="802" type="line"/>
			<point x="322.5836791992" y="125.5987548828" type="line"/>
			<point x="512.9766235352" y="100.5987548828" type="line"/>
			<point x="494.885559082" y="0" type="line"/>
		</contour>
	</outline>
	<anchor name="bottom" x="220" y="0"/>
	<anchor name="ogonek" x="356" y="0"/>
	<anchor name="top" x="503" y="1500"/>
	<anchor name="tonos" x="81" y="1500"/>
	<anchor name="yu_dash" x="365" y="795"/>
	<anchor name="liga" x="712" y="0"/>
</glyph>
<glyph name="J" format="2">
	<unicode hex="004A"/>
	<advance width="665"/>
	<outline>
		<contour>
			<point x="-159.3671875" y="-306.3363037109" type="qcurve"/>
			<point x="-132.7007446289" y="-204.0037841797" type="line"/>
			<point x="-112.2257080078" y="-200.8927001953"/>
			<point x="-118.9768676758" y="-200.1149291992"/>
			<point x="-69.5288696289" y="-200.1149291992" type="qcurve" smooth="yes"/>
			<point x="24.7120361328" y="-200.1149291992"/>
			<point x="93.1903686523" y="-135.0572509766"/>
			<point x="128.1903686523" y="26.9965820312" type="qcurve" smooth="yes"/>
			<point x="279.4448852539" y="754" type="line"/>
			<point x="396.8451538086" y="1360.8013916016" type="line"/>
			<point x="202.7824707031" y="1388.8013916016" type="line"/>
			<point x="214.0952758789" y="1500" type="line"/>
			<point x="787.1857299805" y="1500" type="line"/>
			<point x="774.8729248047" y="1388.8013916016" type="line"/>
			<point x="574.6715698242" y="1360.8013916016" type="line"/>
			<point x="448.2713012695" y="754" type="line"/>
			<point x="308.016784668" y="36.9965820312" type="line" smooth="yes"/>
			<point x="274.016784668" y="-135.1110839844"/>
			<point x="94.4562988281" y="-311.3363037109"/>
			<point x="-44.2754516602" y="-311.3363037109" type="qcurve" smooth="yes"/>
			<point x="-87.3059082031" y="-311.3363037109"/>
			<point x="-138.6585083008" y="-307.0029907227"/>
		</contour>
	</outline>
	<anchor name="bottom" x="376" y="-208"/>
	<anchor name="top" x="533" y="1500"/>
	<anchor name="_liga" x="0" y="0"/>
</glyph>
<glyph name="K" format="2">
	<unicode hex="004B"/>
	<advance width="1042"/>
	<outline>
		<contour>
			<point x="-60.6782836914" y="0" type="line"/>
			<point x="-50.5654296875" y="99.9987792969" type="line"/>
			<point x="140.1969604492" y="124.9987792969" type="line"/>
			<point x="301.9970703125" y="806" type="line"/>
			<point x="420.5972290039" y="1360.8013916016" type="line"/>
			<point x="240.1826171875" y="1388.8013916016" type="line"/>
			<point x="251.4954223633" y="1500" type="line"/>
			<point x="822.7390136719" y="1500" type="line"/>
			<point x="809.4262084961" y="1388.8013916016" type="line"/>
			<point x="604.076965332" y="1360.8013916016" type="line"/>
			<point x="467.2368164062" y="776" type="line"/>
			<point x="319.3833618164" y="124.9987792969" type="line"/>
			<point x="508.9283447266" y="99.9987792969" type="line"/>
			<point x="499.8154907227" y="0" type="line"/>
		</contour>
		<contour>
			<point x="348.7956542969" y="514.1379394531" type="line"/>
			<point x="381.4476318359" y="671.3843994141" type="line"/>
			<point x="989.520324707" y="1361.8013916016" type="line"/>
			<point x="806.4542236328" y="1388.8013916016" type="line"/>
			<point x="818.7670288086" y="1500" type="line"/>
			<point x="1363.5725097656" y="1500" type="line"/>
			<point x="1350.2597045898" y="1388.8013916016" type="line"/>
			<point x="1150.5193481445" y="1360.8013916016" type="line"/>
		</contour>
		<contour>
			<point x="526.5726928711" y="804.8307495117" type="line"/>
			<point x="660.1036987305" y="944.2688598633" type="line"/>
			<point x="951.7719116211" y="124.9987792969" type="line"/>
			<point x="1123.0557861328" y="100.9987792969" type="line"/>
			<point x="1114.9429321289" y="0" type="line"/>
			<point x="601.9822998047" y="0" type="line"/>
			<point x="610.0951538086" y="99.9987792969" type="line"/>
			<point x="767.8788452148" y="124.9987792969" type="line"/>
		</contour>
	</outline>
	<anchor name="bottom" x="607" y="0"/>
	<anchor name="top" x="896" y="1500"/>
	<anchor name="kai_tail" x="1201" y="100"/>
</glyph>
<glyph name="L" format="2">
	<unicode hex="004C"/>
	<advance width="1186"/>
	<outline>
		<contour>
			<point x="-74.758972168" y="0" type="line"/>
			<point x="-65.7374267578" y="99.9987792969" type="line"/>
			<point x="129.0249633789" y="124.9987792969" type="line"/>
			<point x="293.4250488281" y="806" type="line"/>
			<point x="410.4252319336" y="1362.6013793945" type="line"/>
			<point x="231.8148803711" y="1389.6013793945" type="line"/>
			<point x="242.3276977539" y="1500" type="line"/>
			<point x="809.2118530273" y="1500" type="line"/>
			<point x="797.6990356445" y="1389.6013793945" type="line"/>
			<point x="588.9583129883" y="1362.6013793945" type="line"/>
			<point x="454.9581298828" y="754" type="line"/>
			<point x="311.9136962891" y="133.5548706055" type="line"/>
			<point x="339.9136962891" y="106.5548706055" type="line"/>
			<point x="850.6146240234" y="106.5548706055" type="line"/>
			<point x="1020.4249267578" y="475.4171142578" type="line"/>
			<point x="1136.6679077148" y="475.4171142578" type="line"/>
			<point x="988.7468261719" y="0" type="line"/>
		</contour>
	</outline>
	<anchor name="bottom" x="535" y="0"/>
	<anchor name="centerright" x="755" y="750"/>
	<anchor name="top" x="878" y="1500"/>
	<anchor name="topright" x="804" y="1001"/>
	<anchor name="center" x="397" y="750"/>
	<anchor name="liga" x="1104" y="0"/>
</glyph>
<glyph name="M" format="2">
	<unicode hex="004D"/>
	<advance width="1857"/>
	<outline>
		<contour>
			<point x="-105.7258300781" y="0" type="line"/>
			<point x="-97.6129760742" y="99.9987792969" type="line"/>
			<point x="134.8233032227" y="124.9987792969" type="line"/>
			<point x="286.5543823242" y="746" type="line"/>
			<point x="422.2235717773" y="1360.8013916016" type="line"/>
			<point x="210.1134033203" y="1388.8013916016" type="line"/>
			<point x="221.4262084961" y="1500" type="line"/>
			<point x="705.4895629883" y="1500" type="line"/>
			<point x="781.2694702148" y="768.7468261719" type="line"/>
			<point x="815" y="327" type="line"/>
			<point x="831" y="213" type="line"/>
			<point x="841" y="213" type="line"/>
			<point x="900" y="327" type="line"/>
			<point x="1151.8161010742" y="845.0787963867" type="line"/>
			<point x="1452.6001586914" y="1500" type="line"/>
			<point x="1919.2990722656" y="1500" type="line"/>
			<point x="1899.7167358398" y="1387.8013916016" type="line"/>
			<point x="1707.6065673828" y="1360.8013916016" type="line"/>
			<point x="1574.5263061523" y="739" type="line"/>
			<point x="1429.4862060547" y="124.9987792969" type="line"/>
			<point x="1618.6834106445" y="99.9987792969" type="line"/>
			<point x="1609.5705566406" y="0" type="line"/>
			<point x="1044.0995483398" y="0" type="line"/>
			<point x="1054.2124023438" y="99.9987792969" type="line"/>
			<point x="1258.953125" y="124.9987792969" type="line"/>
			<point x="1411.1132202148" y="759" type="line"/>
			<point x="1580" y="1244" type="line"/>
			<point x="1606" y="1363" type="line"/>
			<point x="1597" y="1365" type="line"/>
			<point x="1539" y="1258" type="line"/>
			<point x="1216.8032226562" y="756.4093017578" type="line"/>
			<point x="833.7888183594" y="-5" type="line"/>
			<point x="700.3447875977" y="-5" type="line"/>
			<point x="623.6161499023" y="741.4558105469" type="line"/>
			<point x="499" y="1249" type="line"/>
			<point x="485" y="1357" type="line"/>
			<point x="474" y="1355" type="line"/>
			<point x="456" y="1235" type="line"/>
			<point x="391.5115966797" y="746" type="line"/>
			<point x="259.4891357422" y="124.9987792969" type="line"/>
			<point x="479.1211547852" y="99.9987792969" type="line"/>
			<point x="460.9213867188" y="0" type="line"/>
		</contour>
	</outline>
	<anchor name="bottom" x="768" y="0"/>
	<anchor name="top" x="1048" y="1500"/>
</glyph>
<glyph name="N" format="2">
	<unicode hex="004E"/>
	<advance width="1492"/>
	<outline>
		<contour>
			<point x="-91.7060546875" y="0" type="line"/>
			<point x="-82.5932006836" y="99.9987792969" type="line"/>
			<point x="129.1691894531" y="124.9987792969" type="line"/>
			<point x="277.9692993164" y="752" type="line"/>
			<point x="412.5694580078" y="1360.8013916016" type="line"/>
			<point x="214.2418823242" y="1388.8013916016" type="line"/>
			<point x="226.5546875" y="1500" type="line"/>
			<point x="619.7850341797" y="1500" type="line"/>
			<point x="846.0301513672" y="816.7169189453" type="line"/>
			<point x="958" y="418" type="line"/>
			<point x="990" y="317" type="line"/>
			<point x="1001" y="319" type="line"/>
			<point x="1024" y="440" type="line"/>
			<point x="1138.5096435547" y="753" type="line"/>
			<point x="1261.5098266602" y="1361.0014038086" type="line"/>
			<point x="1036.2255859375" y="1388.0014038086" type="line"/>
			<point x="1050.4644775391" y="1500" type="line"/>
			<point x="1586.6239624023" y="1500" type="line"/>
			<point x="1572.3850708008" y="1388.0014038086" type="line"/>
			<point x="1374.7313842773" y="1361.0014038086" type="line"/>
			<point x="1238.7312011719" y="752" type="line"/>
			<point x="1091.7312011719" y="-4" type="line"/>
			<point x="953.1315917969" y="-4" type="line"/>
			<point x="691.6676025391" y="751.3649291992" type="line"/>
			<point x="507" y="1220" type="line"/>
			<point x="471" y="1324" type="line"/>
			<point x="461" y="1321" type="line"/>
			<point x="442" y="1199" type="line"/>
			<point x="374.4130859375" y="742" type="line"/>
			<point x="243.6129760742" y="124.9987792969" type="line"/>
			<point x="494.9188842773" y="99.9987792969" type="line"/>
			<point x="485.8060302734" y="0" type="line"/>
		</contour>
	</outline>
	<anchor name="bottom" x="640" y="0"/>
	<anchor name="top" x="884" y="1500"/>
	<anchor name="engtail" x="1041" y="0"/>
	<anchor name="liga" x="1432" y="0"/>
</glyph>
<glyph name="O" format="2">
	<unicode hex="004F"/>
	<advance width="1599"/>
	<outline>
		<contour>
			<point x="103.4608154297" y="870" type="qcurve" smooth="yes"/>
			<point x="204.4608154297" y="1219"/>
			<point x="779.0121459961" y="1585.9055786133"/>
			<point x="1052.866027832" y="1518.7189331055" type="qcurve" smooth="yes"/>
			<point x="1298.8982543945" y="1456.1250610352"/>
			<point x="1543.0592041016" y="1010.7066650391"/>
			<point x="1445.123046875" y="658" type="qcurve" smooth="yes"/>
			<point x="1335.9591064453" y="266"/>
			<point x="779.4426879883" y="-76.0574951172"/>
			<point x="504.6404418945" y="-27.2902832031" type="qcurve" smooth="yes"/>
			<point x="241.2438354492" y="20.2491455078"/>
			<point x="-9.5391845703" y="481"/>
		</contour>
		<contour>
			<point x="290.8338623047" y="848" type="qcurve" smooth="yes"/>
			<point x="180.1447753906" y="471.3952636719"/>
			<point x="346.0000610352" y="112.7089233398"/>
			<point x="530.5291748047" y="80.7089233398" type="qcurve" smooth="yes"/>
			<point x="753.3273925781" y="42.7089233398"/>
			<point x="1164.5002441406" y="352.3625488281"/>
			<point x="1252.9233398438" y="674" type="qcurve" smooth="yes"/>
			<point x="1340.3175048828" y="992.791015625"/>
			<point x="1218.7385864258" y="1352.9419555664"/>
			<point x="1016.5104980469" y="1404.9419555664" type="qcurve" smooth="yes"/>
			<point x="797.5081787109" y="1460.9419555664"/>
			<point x="379.8396606445" y="1154.9936523438"/>
		</contour>
	</outline>
	<anchor name="bottom" x="612" y="0"/>
	<anchor name="center" x="765" y="756"/>
	<anchor name="ogonek" x="844" y="0"/>
	<anchor name="top" x="906" y="1500"/>
	<anchor name="topright" x="1044" y="1500"/>
	<anchor name="tonos" x="230" y="1500"/>
	<anchor name="_yu_dash" x="174" y="795"/>
</glyph>
<glyph name="P" format="2">
	<unicode hex="0050"/>
	<advance width="1222"/>
	<outline>
		<contour>
			<point x="-66.4077758789" y="0" type="line"/>
			<point x="-57.294921875" y="99.9987792969" type="line"/>
			<point x="132.576171875" y="126.9987792969" type="line"/>
			<point x="276.0829467773" y="754" type="line"/>
			<point x="413.9764404297" y="1360.8013916016" type="line"/>
			<point x="227.5401611328" y="1388.8013916016" type="line"/>
			<point x="240.0703735352" y="1500" type="line"/>
			<point x="830.8125610352" y="1500" type="line" smooth="yes"/>
			<point x="1070.8132324219" y="1500"/>
			<point x="1267.9705200195" y="1296"/>
			<point x="1235.0404052734" y="1108" type="qcurve" smooth="yes"/>
			<point x="1203.1102905273" y="924"/>
			<point x="911.1370849609" y="623.1117553711"/>
			<point x="703.4747314453" y="623.1117553711" type="qcurve" smooth="yes"/>
			<point x="588.5026245117" y="623.1117553711"/>
			<point x="410.7669067383" y="668.5428466797"/>
			<point x="366.9584960938" y="683.7739868164" type="qcurve"/>
			<point x="392.4428100586" y="793.7199707031" type="line"/>
			<point x="444.6613769531" y="762.2399902344"/>
			<point x="579.4611816406" y="725"/>
			<point x="678.4013671875" y="725" type="qcurve" smooth="yes"/>
			<point x="800.51953125" y="725"/>
			<point x="1000.9073486328" y="874"/>
			<point x="1042.9073486328" y="1076" type="qcurve" smooth="yes"/>
			<point x="1080.9073486328" y="1263"/>
			<point x="919.9362792969" y="1389.2229614258"/>
			<point x="748.5920410156" y="1389.2229614258" type="qcurve" smooth="yes"/>
			<point x="627.8695068359" y="1389.2229614258" type="line"/>
			<point x="578.0917358398" y="1370.2229614258" type="line"/>
			<point x="451.909362793" y="764" type="line"/>
			<point x="298.4025878906" y="127.9987792969" type="line"/>
			<point x="529.578125" y="99.9987792969" type="line"/>
			<point x="519.4652709961" y="0" type="line"/>
		</contour>
	</outline>
	<anchor name="bottom" x="634" y="0"/>
	<anchor name="top" x="634" y="1500"/>
</glyph>
<glyph name="Q" format="2">
	<unicode hex="0051"/>
	<advance width="1621"/>
	<outline>
		<contour>
			<point x="141.3072509766" y="831" type="qcurve" smooth="yes"/>
			<point x="250.3072509766" y="1211"/>
			<point x="832.6287231445" y="1582.0444946289"/>
			<point x="1107.4826049805" y="1518.8578491211" type="qcurve" smooth="yes"/>
			<point x="1351.514831543" y="1461.2639770508"/>
			<point x="1597.7261962891" y="1033"/>
			<point x="1495.9694824219" y="672" type="qcurve" smooth="yes"/>
			<point x="1394.0988769531" y="309"/>
			<point x="819.1931152344" y="-65.8607788086"/>
			<point x="562.3608398438" y="-26.286315918" type="qcurve" smooth="yes"/>
			<point x="345.0336914062" y="7.5936889648"/>
			<point x="35.3072509766" y="463"/>
		</contour>
		<contour>
			<point x="330.6802978516" y="818" type="qcurve" smooth="yes"/>
			<point x="234.8338623047" y="499.3952636719"/>
			<point x="396.911315918" y="112.3796386719"/>
			<point x="593.5156860352" y="70.3796386719" type="qcurve" smooth="yes"/>
			<point x="791.3139038086" y="27.3796386719"/>
			<point x="1212.6834716797" y="352.4981689453"/>
			<point x="1305.7697753906" y="686" type="qcurve" smooth="yes"/>
			<point x="1394.8271484375" y="1009.5197753906"/>
			<point x="1256.3551635742" y="1361.080871582"/>
			<point x="1068.1270751953" y="1407.080871582" type="qcurve" smooth="yes"/>
			<point x="859.1247558594" y="1457.080871582"/>
			<point x="424.8434448242" y="1133.9936523438"/>
		</contour>
		<contour>
			<point x="448.5952148438" y="-21.5517578125" type="qcurve"/>
			<point x="462.8259277344" y="-25.2438964844" type="line"/>
			<point x="974.8375244141" y="-232.580078125" type="line" smooth="yes"/>
			<point x="1000.5017700195" y="-215.237487793"/>
			<point x="1079.1572875977" y="-160.1287841797"/>
			<point x="1105.0862426758" y="-138.4975585938" type="qcurve"/>
			<point x="1167.1968994141" y="-193.6082763672" type="line"/>
			<point x="1133.1968994141" y="-253.6082763672"/>
			<point x="1004.82421875" y="-383.4998779297"/>
			<point x="923.2775878906" y="-392.6865234375" type="qcurve"/>
			<point x="431.115234375" y="-198.6048583984" type="line"/>
			<point x="414.8261108398" y="-221.2668457031"/>
			<point x="323.3572387695" y="-225.5462646484"/>
			<point x="247.3262329102" y="-290.3328857422" type="qcurve"/>
			<point x="199.3265380859" y="-228" type="line"/>
			<point x="233.8598632812" y="-172.2933349609"/>
			<point x="343.3018798828" y="-61.4583740234"/>
		</contour>
		<contour>
			<point x="384.7534790039" y="-53.4594116211" type="line"/>
			<point x="423.1470336914" y="-4.0936889648"/>
			<point x="446.5205078125" y="21.5553588867"/>
			<point x="518.5204467773" y="82.4442138672" type="qcurve" smooth="yes"/>
			<point x="518.2982788086" y="80.6665039062"/>
			<point x="522.4094238281" y="85.9998779297"/>
			<point x="530.2982788086" y="94.333190918" type="qcurve"/>
			<point x="555.7425537109" y="82.555480957"/>
			<point x="602.6311645508" y="46.666809082"/>
			<point x="616.9644165039" y="33.5557861328" type="qcurve"/>
			<point x="611.1866455078" y="24.4447021484"/>
			<point x="604.7421875" y="15.0002441406"/>
			<point x="601.4088134766" y="15.2224121094" type="qcurve" smooth="yes"/>
			<point x="526.1866455078" y="-30.8887329102"/>
			<point x="515.8576049805" y="-29.0889892578"/>
			<point x="474.4507446289" y="-81.9836425781" type="qcurve"/>
		</contour>
	</outline>
	<anchor name="bottom" x="832" y="0"/>
	<anchor name="top" x="832" y="1500"/>
</glyph>
<glyph name="R" format="2">
	<unicode hex="0052"/>
	<advance width="1319"/>
	<outline>
		<contour>
			<point x="-47.1013183594" y="0" type="line"/>
			<point x="-28.901550293" y="99.9987792969" type="line"/>
			<point x="138.8608398438" y="125.9987792969" type="line"/>
			<point x="286.6077270508" y="754" type="line"/>
			<point x="405.2346801758" y="1360.8013916016" type="line"/>
			<point x="224.9982910156" y="1388.8013916016" type="line"/>
			<point x="238.4197998047" y="1500" type="line"/>
			<point x="838.9026489258" y="1500" type="line" smooth="yes"/>
			<point x="996.6112060547" y="1500"/>
			<point x="1235.461730957" y="1330"/>
			<point x="1212.3237304688" y="1141" type="qcurve" smooth="yes"/>
			<point x="1193.0822753906" y="987"/>
			<point x="899.9792480469" y="732.1114501953"/>
			<point x="725.7576904297" y="732.1114501953" type="qcurve" smooth="yes"/>
			<point x="648.0406494141" y="732.1114501953"/>
			<point x="436.6719360352" y="735.1114501953"/>
			<point x="386.8298950195" y="741.9381103516" type="qcurve"/>
			<point x="411.1231079102" y="828.6663818359" type="line"/>
			<point x="494.8829956055" y="828.6663818359" type="line"/>
			<point x="649.9663696289" y="828.6663818359" type="line" smooth="yes"/>
			<point x="818.3798217773" y="828.6663818359"/>
			<point x="1007.260559082" y="1006"/>
			<point x="1023.3640136719" y="1151" type="qcurve" smooth="yes"/>
			<point x="1044.4674682617" y="1340"/>
			<point x="872.889831543" y="1387.6674194336"/>
			<point x="767.1695556641" y="1387.6674194336" type="qcurve" smooth="yes"/>
			<point x="599.2742919922" y="1387.6674194336" type="line"/>
			<point x="581.4965209961" y="1370.6674194336" type="line"/>
			<point x="451.6074829102" y="751" type="line"/>
			<point x="313.8072509766" y="125.9987792969" type="line"/>
			<point x="514.8957519531" y="99.9987792969" type="line"/>
			<point x="496.6959838867" y="0" type="line"/>
		</contour>
		<contour>
			<point x="616" y="792" type="line"/>
			<point x="823.6243896484" y="804.1380004883" type="line"/>
			<point x="846.9691162109" y="708" type="line" smooth="yes"/>
			<point x="953.1205444336" y="320.575378418"/>
			<point x="1085.6569213867" y="119.1644897461"/>
			<point x="1271.7596435547" y="96.1987915039" type="qcurve"/>
			<point x="1244.973815918" y="0" type="line"/>
			<point x="1214.7323608398" y="0" type="line" smooth="yes"/>
			<point x="970.939453125" y="0"/>
			<point x="656" y="447"/>
			<point x="690.9165039062" y="682" type="qcurve" smooth="yes"/>
		</contour>
	</outline>
	<anchor name="bottom" x="573" y="0"/>
	<anchor name="top" x="670" y="1500"/>
</glyph>
<glyph name="T" format="2">
	<unicode hex="0054"/>
	<advance width="1208"/>
	<outline>
		<contour>
			<point x="136.721496582" y="1100.669128418" type="line"/>
			<point x="219.2164916992" y="1500" type="line"/>
			<point x="1365.9458007812" y="1500" type="line"/>
			<point x="1283.4508056641" y="1100.669128418" type="line"/>
			<point x="1182.4481201172" y="1100.669128418" type="line"/>
			<point x="1209.6128540039" y="1385.6674194336" type="line"/>
			<point x="883.4627685547" y="1385.6674194336" type="line"/>
			<point x="846.4627685547" y="1373.6674194336" type="line"/>
			<point x="723.9159545898" y="754" type="line"/>
			<point x="592.9157104492" y="124.9987792969" type="line"/>
			<point x="777.73046875" y="99.9987792969" type="line"/>
			<point x="768.5263061523" y="0" type="line"/>
			<point x="180.2614135742" y="0" type="line"/>
			<point x="187.4655761719" y="99.9987792969" type="line"/>
			<point x="415.2626342773" y="124.9987792969" type="line"/>
			<point x="550.3828735352" y="754" type="line"/>
			<point x="673.9296875" y="1373.6674194336" type="line"/>
			<point x="646.9296875" y="1385.6674194336" type="line"/>
			<point x="326.8830566406" y="1385.6674194336" type="line"/>
			<point x="237.7241821289" y="1100.669128418" type="line"/>
		</contour>
	</outline>
	<anchor name="bottom" x="451" y="0"/>
	<anchor name="center" x="584" y="750"/>
	<anchor name="top" x="732" y="1500"/>
	<anchor name="cy_descender" x="755" y="100"/>
</glyph>
<glyph name="U" format="2">
	<unicode hex="0055"/>
	<advance width="1444"/>
	<outline>
		<contour>
			<point x="207.9401245117" y="1388.8013916016" type="line"/>
			<point x="221.1616210938" y="1500" type="line"/>
			<point x="776.0576171875" y="1500" type="line"/>
			<point x="762.8361206055" y="1388.8013916016" type="line"/>
			<point x="570.3565063477" y="1360.8013916016" type="line"/>
			<point x="434.4896850586" y="794" type="line" smooth="yes"/>
			<point x="407.2763671875" y="675.200012207"/>
			<point x="341.4896850586" y="319"/>
			<point x="341.4896850586" y="263" type="qcurve" smooth="yes"/>
			<point x="341.4896850586" y="184.4532470703"/>
			<point x="490.8056640625" y="98.4736938477"/>
			<point x="621.3786010742" y="98.4736938477" type="qcurve" smooth="yes"/>
			<point x="785.6854858398" y="98.4736938477"/>
			<point x="1027.1040649414" y="270.4440307617"/>
			<point x="1058.7708129883" y="417" type="qcurve" smooth="yes"/>
			<point x="1137.7708129883" y="794" type="line"/>
			<point x="1245.5709838867" y="1360.8013916016" type="line"/>
			<point x="1029.1563720703" y="1388.8013916016" type="line"/>
			<point x="1042.3778686523" y="1500" type="line"/>
			<point x="1619.0249633789" y="1500" type="line"/>
			<point x="1605.8034667969" y="1388.8013916016" type="line"/>
			<point x="1371.2368164062" y="1360.8013916016" type="line"/>
			<point x="1246.9922485352" y="794" type="line"/>
			<point x="1171.5477905273" y="425" type="line" smooth="yes"/>
			<point x="1129.1033325195" y="216"/>
			<point x="815.8897705078" y="-20.427734375"/>
			<point x="565.5877075195" y="-20.427734375" type="qcurve" smooth="yes"/>
			<point x="366.5952148438" y="-20.427734375"/>
			<point x="166.5966186523" y="144"/>
			<point x="166.5966186523" y="264" type="qcurve" smooth="yes"/>
			<point x="166.5966186523" y="338"/>
			<point x="243.663269043" y="682.2933349609"/>
			<point x="265.663269043" y="794" type="qcurve" smooth="yes"/>
			<point x="387.4634399414" y="1360.8013916016" type="line"/>
		</contour>
	</outline>
	<anchor name="bottom" x="588" y="0"/>
	<anchor name="ogonek" x="810" y="0"/>
	<anchor name="top" x="908" y="1500"/>
	<anchor name="topright" x="1561" y="1500"/>
</glyph>
<glyph name="V" format="2">
	<unicode hex="0056"/>
	<advance width="1155"/>
	<outline>
		<contour>
			<point x="-26.7172241211" y="1387.8013916016" type="line"/>
			<point x="-6.1348876953" y="1500" type="line"/>
			<point x="637.2133789062" y="1500" type="line"/>
			<point x="616.6310424805" y="1388.8013916016" type="line"/>
			<point x="374.8732910156" y="1363.8013916016" type="line"/>
			<point x="428.922668457" y="832.6723022461" type="line"/>
			<point x="438" y="390" type="line"/>
			<point x="442" y="261" type="line"/>
			<point x="460" y="261" type="line"/>
			<point x="527" y="390" type="line"/>
			<point x="825.3094482422" y="859.3583374023" type="line"/>
			<point x="1101.0935668945" y="1362.8013916016" type="line"/>
			<point x="849.3573608398" y="1387.8013916016" type="line"/>
			<point x="862.6701660156" y="1500" type="line"/>
			<point x="1476.5570678711" y="1500" type="line"/>
			<point x="1466.0220336914" y="1387.8013916016" type="line"/>
			<point x="1210.8860473633" y="1364.8013916016" type="line"/>
			<point x="911.4177246094" y="803.9692382812" type="line"/>
			<point x="463.5700073242" y="-6.1430664062" type="line"/>
			<point x="344.253112793" y="-6.1430664062" type="line"/>
			<point x="267.9119873047" y="741.8874511719" type="line"/>
			<point x="213.353515625" y="1360.8013916016" type="line"/>
		</contour>
	</outline>
	<anchor name="bottom" x="373" y="0"/>
	<anchor name="top" x="743" y="1500"/>
</glyph>
<glyph name="W" format="2">
	<unicode hex="0057"/>
	<advance width="1703"/>
	<outline>
		<contour>
			<point x="-12.2912597656" y="1388.8013916016" type="line"/>
			<point x="11.0171508789" y="1500" type="line"/>
			<point x="593.3460693359" y="1500" type="line"/>
			<point x="571.0376586914" y="1387.8013916016" type="line"/>
			<point x="353.1885986328" y="1360.8013916016" type="line"/>
			<point x="415.649597168" y="810.6756591797" type="line"/>
			<point x="410" y="400" type="line"/>
			<point x="410" y="271" type="line"/>
			<point x="427" y="271" type="line"/>
			<point x="497" y="400" type="line"/>
			<point x="647.1297607422" y="555.0437011719" type="line"/>
			<point x="913" y="1121" type="line"/>
			<point x="882.7085571289" y="1368.2012939453" type="line"/>
			<point x="692.8378295898" y="1395.2012939453" type="line"/>
			<point x="713.6375732422" y="1500" type="line"/>
			<point x="1283.1510009766" y="1500" type="line"/>
			<point x="1262.5686645508" y="1387.8013916016" type="line"/>
			<point x="1052.1544189453" y="1362.8013916016" type="line"/>
			<point x="1118.5181884766" y="776.7296142578" type="line"/>
			<point x="1094" y="400" type="line"/>
			<point x="1094" y="271" type="line"/>
			<point x="1111" y="271" type="line"/>
			<point x="1177" y="400" type="line"/>
			<point x="1470.4538574219" y="833.0817260742" type="line"/>
			<point x="1683.1939697266" y="1352.8013916016" type="line"/>
			<point x="1456.9967651367" y="1388.8013916016" type="line"/>
			<point x="1470.3095703125" y="1500" type="line"/>
			<point x="2077.1750488281" y="1500" type="line"/>
			<point x="1972" y="1385" type="line"/>
			<point x="1828.0131835938" y="1347.0014038086" type="line"/>
			<point x="1568.5592041016" y="790.6298217773" type="line"/>
			<point x="1160.9011230469" y="-4.1430664062" type="line"/>
			<point x="1034.2825927734" y="-4.1430664062" type="line"/>
			<point x="923" y="805" type="line"/>
			<point x="921" y="934" type="line"/>
			<point x="911" y="934" type="line"/>
			<point x="844" y="805" type="line"/>
			<point x="448.3936767578" y="-4.1430664062" type="line"/>
			<point x="329.2298583984" y="-4.1430664062" type="line"/>
			<point x="252.596496582" y="759.5690917969" type="line"/>
			<point x="178.7535400391" y="1360.8013916016" type="line"/>
		</contour>
	</outline>
	<anchor name="bottom" x="691" y="0"/>
	<anchor name="top" x="981" y="1500"/>
</glyph>
<glyph name="X" format="2">
	<unicode hex="0058"/>
	<advance width="1153"/>
	<outline>
		<contour>
			<point x="-284.8026733398" y="0" type="line"/>
			<point x="-276.6898193359" y="99.9987792969" type="line"/>
			<point x="-54.9494628906" y="124.9987792969" type="line"/>
			<point x="513" y="764" type="line"/>
			<point x="264.785949707" y="1367.8013916016" type="line"/>
			<point x="78.2630004883" y="1388.8013916016" type="line"/>
			<point x="89.5758056641" y="1500" type="line"/>
			<point x="633.9619750977" y="1500" type="line"/>
			<point x="621.6491699219" y="1388.8013916016" type="line"/>
			<point x="454.452331543" y="1365.8013916016" type="line"/>
			<point x="581" y="1027" type="line"/>
			<point x="627" y="913" type="line"/>
			<point x="638" y="913" type="line"/>
			<point x="724" y="1027" type="line"/>
			<point x="1055.7350463867" y="1351.8013916016" type="line"/>
			<point x="854.451171875" y="1388.8013916016" type="line"/>
			<point x="866.7639770508" y="1500" type="line"/>
			<point x="1438.6124267578" y="1500" type="line"/>
			<point x="1425.299621582" y="1388.8013916016" type="line"/>
			<point x="1182.4722290039" y="1348.8013916016" type="line"/>
			<point x="670" y="808" type="line"/>
			<point x="985.8954467773" y="124.9987792969" type="line"/>
			<point x="1180.2880249023" y="99.9987792969" type="line"/>
			<point x="1171.1751708984" y="0" type="line"/>
			<point x="598.1040039062" y="0" type="line"/>
			<point x="607.2168579102" y="99.9987792969" type="line"/>
			<point x="800.5223999023" y="124.9987792969" type="line"/>
			<point x="603" y="544" type="line"/>
			<point x="556" y="658" type="line"/>
			<point x="546" y="658" type="line"/>
			<point x="461" y="544" type="line"/>
			<point x="71.8109130859" y="123.9987792969" type="line"/>
			<point x="301.0947875977" y="99.9987792969" type="line"/>
			<point x="292.9819335938" y="0" type="line"/>
		</contour>
	</outline>
	<anchor name="bottom" x="453" y="0"/>
	<anchor name="top" x="723" y="1500"/>
	<anchor name="cy_descender" x="1125" y="100"/>
	<anchor name="center" x="591" y="791"/>
</glyph>
<glyph name="Y" format="2">
	<unicode hex="0059"/>
	<advance width="1217"/>
	<outline>
		<contour>
			<point x="216.7142333984" y="0" type="line"/>
			<point x="226.8270874023" y="99.9987792969" type="line"/>
			<point x="430.5678100586" y="124.9987792969" type="line"/>
			<point x="548.1457519531" y="630.8891601562" type="line"/>
			<point x="379.5220336914" y="962.4426879883" type="line"/>
			<point x="174.4320068359" y="1360.8013916016" type="line"/>
			<point x="3.6699829102" y="1387.8013916016" type="line"/>
			<point x="14.9827880859" y="1500" type="line"/>
			<point x="556.2378540039" y="1500" type="line"/>
			<point x="543.9250488281" y="1387.8013916016" type="line"/>
			<point x="374.7282104492" y="1361.8013916016" type="line"/>
			<point x="528.5833740234" y="1061.2552490234" type="line"/>
			<point x="609" y="783" type="line"/>
			<point x="619" y="783" type="line"/>
			<point x="824" y="1077" type="line"/>
			<point x="1197.552734375" y="1352.8013916016" type="line"/>
			<point x="1014.3121948242" y="1387.8013916016" type="line"/>
			<point x="1026.625" y="1500" type="line"/>
			<point x="1536.7724609375" y="1500" type="line"/>
			<point x="1523.4596557617" y="1387.8013916016" type="line"/>
			<point x="1325.6976318359" y="1353.8013916016" type="line"/>
			<point x="903" y="1013" type="line"/>
			<point x="730.1524658203" y="686.5663452148" type="line"/>
			<point x="604.9808959961" y="124.9987792969" type="line"/>
			<point x="796.6129150391" y="99.9987792969" type="line"/>
			<point x="786.5000610352" y="0" type="line"/>
		</contour>
	</outline>
	<anchor name="bottom" x="443" y="0"/>
	<anchor name="top" x="731" y="1500"/>
	<anchor name="tonos" x="-13" y="1500"/>
	<anchor name="center" x="553" y="579"/>
</glyph>
<glyph name="c" format="2">
	<unicode hex="0063"/>
	<advance width="826"/>
	<outline>
		<contour>
			<point x="10.9766845703" y="505.473815918" type="qcurve" smooth="yes"/>
			<point x="52.1929931641" y="716.339050293"/>
			<point x="363.447265625" y="1019.9476318359"/>
			<point x="546.5614624023" y="1019.9476318359" type="qcurve" smooth="yes"/>
			<point x="677.7418823242" y="1019.9476318359"/>
			<point x="812.987121582" y="913.9476318359"/>
			<point x="812.987121582" y="852.9476318359" type="qcurve" smooth="yes"/>
			<point x="812.987121582" y="809.9476318359"/>
			<point x="728.2930297852" y="735.9476318359"/>
			<point x="659.0992431641" y="716.9476318359" type="qcurve"/>
			<point x="619.0218505859" y="735.9476318359" type="line"/>
			<point x="629.0218505859" y="927.9476318359" type="line" smooth="yes"/>
			<point x="631.0218505859" y="962.9476318359"/>
			<point x="565.0758666992" y="892.9237060547"/>
			<point x="514.86328125" y="892.9237060547" type="qcurve" smooth="yes"/>
			<point x="386.9965820312" y="892.9237060547"/>
			<point x="214.2734375" y="708.3931274414"/>
			<point x="176.0571289062" y="505.473815918" type="qcurve" smooth="yes"/>
			<point x="135.8948974609" y="289.6626586914"/>
			<point x="257.8300170898" y="131.5588378906"/>
			<point x="405.0065307617" y="131.5588378906" type="qcurve" smooth="yes"/>
			<point x="532.2460327148" y="131.5588378906"/>
			<point x="672.3021850586" y="222.7214355469"/>
			<point x="719.0303955078" y="273.279296875" type="qcurve"/>
			<point x="773.2487182617" y="214.7673339844" type="line"/>
			<point x="773.2487182617" y="173.46484375" type="line"/>
			<point x="713.7163696289" y="118.0843505859"/>
			<point x="449.1984863281" y="-9"/>
			<point x="303.8173217773" y="-9" type="qcurve" smooth="yes"/>
			<point x="122.4253540039" y="-9"/>
			<point x="-33.7125854492" y="274.1896972656"/>
		</contour>
	</outline>
	<anchor name="bottom" x="343" y="0"/>
	<anchor name="top" x="600" y="1000"/>
</glyph>
<glyph name="d" format="2">
	<unicode hex="0064"/>
	<advance width="878"/>
	<outline>
		<contour>
			<point x="-68.7108283283" y="314.2703857422" type="qcurve" smooth="yes"/>
			<point x="-67.9811908346" y="570.5682373047"/>
			<point x="346.9552105326" y="966.0255126953"/>
			<point x="626.509653892" y="986.9879760742" type="qcurve" smooth="yes"/>
			<point x="705.385447349" y="986.9879760742" type="line"/>
			<point x="783.7907818217" y="1425.6920166016" type="line"/>
			<point x="599.2569683451" y="1407.46484375" type="line"/>
			<point x="627.4390972514" y="1481.6474609375" type="line"/>
			<point x="899.8624981303" y="1551.6474609375" type="line"/>
			<point x="959.8643291849" y="1503.4536743164" type="line"/>
			<point x="763.2515362162" y="469" type="line"/>
			<point x="706.4789532084" y="134.8646240234" type="line"/>
			<point x="874.5579327006" y="165.8646240234" type="line"/>
			<point x="874.5579327006" y="76" type="line"/>
			<point x="607.2874859232" y="-6" type="line"/>
			<point x="550.7097881693" y="75.6940917969" type="line"/>
			<point x="592.0673321146" y="265.9533691406" type="line"/>
			<point x="544.3695171732" y="136.2092285156"/>
			<point x="264.1197613139" y="-5"/>
			<point x="167.8869732279" y="-5" type="qcurve" smooth="yes"/>
			<point x="53.452647056" y="-5"/>
			<point x="-68.952100301" y="147.1622314453"/>
		</contour>
		<contour>
			<point x="98.3312248944" y="328.2703857422" type="qcurve" smooth="yes"/>
			<point x="98.0957744974" y="235.8679199219"/>
			<point x="125.9305523295" y="106.0471191406"/>
			<point x="221.660837974" y="106.0471191406" type="qcurve" smooth="yes"/>
			<point x="327.001841392" y="106.0471191406"/>
			<point x="575.2041729349" y="245"/>
			<point x="601.4020489115" y="402" type="qcurve" smooth="yes"/>
			<point x="668.0894878764" y="779.6383666992" type="line"/>
			<point x="672.0894878764" y="808.6383666992"/>
			<point x="587.8290508646" y="838.6383666992"/>
			<point x="518.7061260599" y="838.6383666992" type="qcurve" smooth="yes"/>
			<point x="293.4019878764" y="838.6383666992"/>
			<point x="98.8137688397" y="566.5682373047"/>
		</contour>
	</outline>
	<anchor name="bottom" x="604" y="0"/>
	<anchor name="center" x="876" y="1202"/>
	<anchor name="top" x="704" y="1534"/>
	<anchor name="topright" x="1076" y="1000"/>
	<anchor name="liga" x="1067" y="0"/>
</glyph>
<glyph name="e" format="2">
	<unicode hex="0065"/>
	<advance width="925"/>
	<outline>
		<contour>
			<point x="-1.0435339523" y="476.3810424805" type="qcurve" smooth="yes"/>
			<point x="27.6744225907" y="708.2240600586"/>
			<point x="367.4089806962" y="1017.5287475586"/>
			<point x="553.5351403641" y="1017.5287475586" type="qcurve" smooth="yes"/>
			<point x="708.8059533524" y="1017.5287475586"/>
			<point x="864.6607507157" y="889.664855957"/>
			<point x="861.3017419266" y="782.3914794922" type="qcurve" smooth="yes"/>
			<point x="857.7098840165" y="761.2139282227"/>
			<point x="855.8226769852" y="735.9200439453"/>
			<point x="861.9061120438" y="734.2384643555" type="qcurve"/>
			<point x="917.254988997" y="724.7965698242" type="line"/>
			<point x="884.231551497" y="622.4472045898" type="line"/>
			<point x="825.3420861649" y="624.1010742188"/>
			<point x="644.7257080078" y="624.4472045898"/>
			<point x="560.5392907548" y="624.4472045898" type="qcurve" smooth="yes"/>
			<point x="114.1215820312" y="621.4472045898" type="line"/>
			<point x="149.5092004227" y="714.7008056641" type="line"/>
			<point x="656.245223372" y="724.9826049805" type="line"/>
			<point x="657.5996545243" y="719.0673217773"/>
			<point x="663.668685286" y="725.5454711914"/>
			<point x="665.116317122" y="751.9711914062" type="qcurve" smooth="yes"/>
			<point x="667.0464929032" y="808.6759643555"/>
			<point x="597.7321618485" y="892.6908569336"/>
			<point x="508.3806603837" y="892.6908569336" type="qcurve" smooth="yes"/>
			<point x="394.9040978837" y="892.6908569336"/>
			<point x="203.7416222977" y="731.8150634766"/>
			<point x="170.7888024735" y="501.6223144531" type="qcurve" smooth="yes"/>
			<point x="153.9908898759" y="357.9431152344"/>
			<point x="242.4645996094" y="152.1111450195"/>
			<point x="398.0383911133" y="128.7476196289" type="qcurve" smooth="yes"/>
			<point x="564.9946289062" y="103.6614379883"/>
			<point x="731.6868286133" y="221.6185913086"/>
			<point x="812.0625" y="298.2695922852" type="qcurve"/>
			<point x="852.6486047196" y="246.5581054688" type="line"/>
			<point x="881.695235579" y="214.4038696289" type="line"/>
			<point x="801.7392578125" y="148.561706543"/>
			<point x="509.2073974609" y="-29.4921264648"/>
			<point x="303.6352990556" y="-4.0383911133" type="qcurve" smooth="yes"/>
			<point x="147.3485107422" y="17.1076049805"/>
			<point x="-25.7581945968" y="264.1166381836"/>
		</contour>
	</outline>
	<anchor name="bottom" x="339" y="0"/>
	<anchor name="ogonek" x="495" y="0"/>
	<anchor name="top" x="601" y="1000"/>
</glyph>
<glyph name="h" format="2">
	<unicode hex="0068"/>
	<advance width="1141"/>
	<outline>
		<contour>
			<point x="54.5444946289" y="-27.3851318359" type="line"/>
			<point x="31.0057983398" y="19.0377807617" type="line"/>
			<point x="150.8522338867" y="559.1139526367" type="line"/>
			<point x="314.6644897461" y="1422.4523925781" type="line"/>
			<point x="124.5535888672" y="1406.8161621094" type="line"/>
			<point x="152.7357177734" y="1480.9987792969" type="line"/>
			<point x="429.7362060547" y="1559.4990844727" type="line"/>
			<point x="492.353515625" y="1509.9975585938" type="line"/>
			<point x="313.1252441406" y="598.6538696289" type="line"/>
			<point x="220.0484619141" y="68.6538696289" type="line"/>
			<point x="244.3945922852" y="5" type="line"/>
		</contour>
		<contour>
			<point x="758.1610107422" y="-7.3077392578" type="line"/>
			<point x="698.9678344727" y="134.9634399414" type="line"/>
			<point x="851.503112793" y="778.8929443359" type="line" smooth="yes"/>
			<point x="859.1120605469" y="798.084777832"/>
			<point x="776.9465942383" y="879.6829833984"/>
			<point x="704.0242919922" y="879.6829833984" type="qcurve" smooth="yes"/>
			<point x="572.6297607422" y="879.6829833984"/>
			<point x="300.8931884766" y="649.3912353516"/>
			<point x="224.7537841797" y="538.6131591797" type="qcurve"/>
			<point x="244.5500488281" y="679.0557861328" type="line"/>
			<point x="326.1268310547" y="789.2141723633"/>
			<point x="661.3481445312" y="1021.0557861328"/>
			<point x="833.7710571289" y="1021.0557861328" type="qcurve" smooth="yes"/>
			<point x="931.8317260742" y="1021.0557861328"/>
			<point x="1038.6578369141" y="880.5103149414"/>
			<point x="1012.3207397461" y="772.0557861328" type="qcurve" smooth="yes"/>
			<point x="858.132019043" y="136.0009765625" type="line"/>
			<point x="1009.8927612305" y="165.0009765625" type="line"/>
			<point x="1009.8927612305" y="76" type="line"/>
		</contour>
	</outline>
	<anchor name="bottom" x="420" y="0"/>
	<anchor name="center" x="347" y="1202"/>
	<anchor name="top" x="424" y="1534"/>
</glyph>
<glyph name="k" format="2">
	<unicode hex="006B"/>
	<advance width="910"/>
	<outline>
		<contour>
			<point x="412.9236450195" y="460.1228637695" type="line"/>
			<point x="123.93359375" y="145.3791503906" type="line"/>
			<point x="137.0038452148" y="259.7497558594" type="line"/>
			<point x="685.7893066406" y="852.7231445312" type="line"/>
			<point x="693.2526245117" y="868.9303588867"/>
			<point x="653.9489746094" y="894.6759643555"/>
			<point x="615.2479248047" y="894.6759643555" type="qcurve" smooth="yes"/>
			<point x="563.7164916992" y="894.6759643555"/>
			<point x="336.1115112305" y="700.9096679688"/>
			<point x="280.2396850586" y="564.8851928711" type="qcurve"/>
			<point x="279.5432128906" y="579.306640625" type="line"/>
			<point x="201.6639404297" y="89.9622192383" type="line"/>
			<point x="225.4713745117" y="22.0006103516" type="line"/>
			<point x="36.5828857422" y="-12" type="line"/>
			<point x="19.5828857422" y="37" type="line"/>
			<point x="108.5828857422" y="478" type="line"/>
			<point x="291.0874023438" y="1423.9647216797" type="line"/>
			<point x="109.5535888672" y="1407.46484375" type="line"/>
			<point x="137.7357177734" y="1481.6474609375" type="line"/>
			<point x="407.5052490234" y="1560.1477661133" type="line"/>
			<point x="470.1225585938" y="1509.9923706055" type="line"/>
			<point x="315.8899536133" y="745.6854248047" type="line"/>
			<point x="383.7981567383" y="850.8952636719"/>
			<point x="595.2098388672" y="1019.4205932617"/>
			<point x="693.2116699219" y="1019.4205932617" type="qcurve" smooth="yes"/>
			<point x="753.4544067383" y="1019.4205932617"/>
			<point x="821.4041137695" y="976.4908447266"/>
			<point x="828.4590454102" y="977.7414550781" type="qcurve" smooth="yes"/>
			<point x="840.3319702148" y="840.6790161133" type="line"/>
			<point x="833.7327270508" y="832.3069458008" type="line"/>
			<point x="433.311706543" y="480.0982666016" type="line"/>
		</contour>
		<contour>
			<point x="583.8634643555" y="632.8763427734" type="line"/>
			<point x="702.0365600586" y="168.1557617188" type="line"/>
			<point x="884.1569824219" y="193.1557617188" type="line"/>
			<point x="885.1569824219" y="106.1547851562" type="line"/>
			<point x="648.2670288086" y="0.3363037109" type="line" smooth="yes"/>
			<point x="620.8815307617" y="-17.662902832"/>
			<point x="614.6632080078" y="16.8646240234"/>
			<point x="595.6314697266" y="60" type="qcurve" smooth="yes"/>
			<point x="465.6621704102" y="532.7065429688" type="line"/>
		</contour>
	</outline>
	<anchor name="bottom" x="448" y="0"/>
	<anchor name="top" x="578" y="1534"/>
</glyph>
<glyph name="l" format="2">
	<unicode hex="006C"/>
	<advance width="510"/>
	<outline>
		<contour>
			<point x="133.0985107422" y="-6" type="line"/>
			<point x="58.289855957" y="102.1176147461" type="line"/>
			<point x="162.7127685547" y="600" type="line"/>
			<point x="316.9479370117" y="1424.8283691406" type="line"/>
			<point x="132.4141235352" y="1407.46484375" type="line"/>
			<point x="160.5962524414" y="1481.6474609375" type="line"/>
			<point x="428.0196533203" y="1564.7632446289" type="line"/>
			<point x="499.6369628906" y="1510.26171875" type="line"/>
			<point x="320.4086914062" y="597" type="line"/>
			<point x="227.2270507812" y="134.0009765625" type="line"/>
			<point x="389.7150878906" y="165.0009765625" type="line"/>
			<point x="389.7150878906" y="76" type="line"/>
		</contour>
	</outline>
	<anchor name="bottom" x="201" y="0"/>
	<anchor name="center" x="236" y="770"/>
	<anchor name="top" x="436" y="1534"/>
	<anchor name="topright" x="492" y="1000"/>
	<anchor name="centerright" x="707" y="742"/>
	<anchor name="liga" x="567" y="0"/>
</glyph>
<glyph name="n" format="2">
	<unicode hex="006E"/>
	<advance width="1110"/>
	<outline>
		<contour>
			<point x="42.5855712891" y="-11" type="line"/>
			<point x="37.5855712891" y="45.8322753906" type="line"/>
			<point x="131.0017089844" y="490" type="line"/>
			<point x="195.8765258789" y="860.2819824219" type="line"/>
			<point x="70.2521362305" y="862.2819824219" type="line"/>
			<point x="71.9794311523" y="961.0557861328" type="line"/>
			<point x="260.9403076172" y="998.4719238281" type="line"/>
			<point x="315.7105712891" y="984.4719238281" type="line"/>
			<point x="332.2894897461" y="726.0557861328" type="line"/>
			<point x="323.2894897461" y="674.0557861328" type="line"/>
			<point x="214.5892333984" y="75.4564819336" type="line"/>
			<point x="212.2537841797" y="7.2080688477" type="line"/>
		</contour>
		<contour>
			<point x="707.0576782227" y="-4.2577514648" type="line"/>
			<point x="679.3931274414" y="82" type="line"/>
			<point x="824.4322509766" y="709.3348999023" type="line" smooth="yes"/>
			<point x="841.4982910156" y="784.8565673828"/>
			<point x="777.3198852539" y="882.7679443359"/>
			<point x="684.2358398438" y="882.7679443359" type="qcurve" smooth="yes"/>
			<point x="563.0134277344" y="882.7679443359"/>
			<point x="354.9060668945" y="724.3380126953"/>
			<point x="242.5906982422" y="585.5179443359" type="qcurve"/>
			<point x="256.3758544922" y="718.7008666992" type="line"/>
			<point x="274.3297119141" y="798.4552001953"/>
			<point x="601.6466674805" y="1024.0563354492"/>
			<point x="745.7651977539" y="1024.0563354492" type="qcurve" smooth="yes"/>
			<point x="888.1438598633" y="1024.0563354492"/>
			<point x="1017.2769775391" y="862.0653686523"/>
			<point x="999.2388916016" y="793.5875244141" type="qcurve" smooth="yes"/>
			<point x="844.2639770508" y="136.0009765625" type="line"/>
			<point x="996.8883666992" y="165.0009765625" type="line"/>
			<point x="996.8883666992" y="76" type="line"/>
		</contour>
	</outline>
	<anchor name="bottom" x="522" y="0"/>
	<anchor name="top" x="602" y="1000"/>
	<anchor name="liga" x="1173" y="0"/>
</glyph>
<glyph name="o" format="2">
	<unicode hex="006F"/>
	<advance width="961"/>
	<outline>
		<contour>
			<point x="15.7658462971" y="560.0008544922" type="qcurve" smooth="yes"/>
			<point x="73.0733203294" y="795.2657470703"/>
			<point x="461.6667651536" y="1057.4307250977"/>
			<point x="642.7432422044" y="1012.4307250977" type="qcurve" smooth="yes"/>
			<point x="827.6568774583" y="970.0469360352"/>
			<point x="967.5131396653" y="658.8120117188"/>
			<point x="916.9643936603" y="462.0008544922" type="qcurve" smooth="yes"/>
			<point x="852.5156421067" y="208.1705322266"/>
			<point x="462.1134204271" y="-42.4290161133"/>
			<point x="304.9962939622" y="-8.4290161133" type="qcurve" smooth="yes"/>
			<point x="115.5517749192" y="28.3009033203"/>
			<point x="-41.6829052565" y="326.57421875"/>
		</contour>
		<contour>
			<point x="188.7311172932" y="564.0008544922" type="qcurve" smooth="yes"/>
			<point x="141.0392461736" y="362.7230270189"/>
			<point x="212.0969009846" y="129.1463012695"/>
			<point x="327.3517227619" y="95.1994018555" type="qcurve" smooth="yes"/>
			<point x="440.5551529377" y="63.1994018555"/>
			<point x="696.3031153672" y="282.7808347835"/>
			<point x="742.7297745197" y="475.7595825195" type="qcurve" smooth="yes"/>
			<point x="788.3436514079" y="660.9761651614"/>
			<point x="714.2367325275" y="874.2905883789"/>
			<point x="614.77677159" y="898.2905883789" type="qcurve" smooth="yes"/>
			<point x="475.9836197346" y="930.2905883789"/>
			<point x="230.2949922489" y="741.1171800091"/>
		</contour>
	</outline>
	<anchor name="bottom" x="358" y="0"/>
	<anchor name="center" x="461" y="500"/>
	<anchor name="ogonek" x="514" y="0"/>
	<anchor name="top" x="584" y="1000"/>
	<anchor name="topright" x="663" y="1000"/>
	<anchor name="GRKtop" x="584" y="1000"/>
	<anchor name="yu_dash" x="83" y="498"/>
</glyph>
<glyph name="q" format="2">
	<unicode hex="0071"/>
	<advance width="1002"/>
	<outline>
		<contour>
			<point x="-17.7553710938" y="296.2703857422" type="qcurve" smooth="yes"/>
			<point x="-14.0315551758" y="576.1493530273"/>
			<point x="349.333190918" y="1011.5150146484"/>
			<point x="566.07421875" y="1011.5150146484" type="qcurve" smooth="yes"/>
			<point x="650.9376831055" y="1011.5150146484"/>
			<point x="755.6646118164" y="971.5150146484"/>
			<point x="769.0106201172" y="958.5150146484" type="qcurve"/>
			<point x="830.5951538086" y="989.5150146484" type="line"/>
			<point x="856.2496337891" y="989.5150146484" type="line"/>
			<point x="900.4434204102" y="815.6271362305" type="line"/>
			<point x="802.5944824219" y="358" type="line"/>
			<point x="667.1401367188" y="-285.8627929688" type="line"/>
			<point x="814.0830078125" y="-305.3173828125" type="line"/>
			<point x="789.9008789062" y="-380.5" type="line"/>
			<point x="572.2855224609" y="-412.8851318359" type="line"/>
			<point x="502.5143432617" y="-346.383605957" type="line"/>
			<point x="627.7066040039" y="221" type="line"/>
			<point x="619.7066040039" y="223" type="line"/>
			<point x="543.6965332031" y="116.7587280273"/>
			<point x="352.8638305664" y="10"/>
			<point x="238.0474853516" y="10" type="qcurve" smooth="yes"/>
			<point x="109.2509765625" y="10"/>
			<point x="-18.9966430664" y="162.8572998047"/>
		</contour>
		<contour>
			<point x="146.9021606445" y="292.2703857422" type="qcurve" smooth="yes"/>
			<point x="143.6608886719" y="223.6116333008"/>
			<point x="221.4232177734" y="123.8610839844"/>
			<point x="291.2730712891" y="123.8610839844" type="qcurve" smooth="yes"/>
			<point x="411.0760498047" y="123.8610839844"/>
			<point x="648.1727905273" y="265.5458984375"/>
			<point x="663.4756469727" y="414" type="qcurve" smooth="yes"/>
			<point x="743.9381103516" y="812.2352294922" type="line"/>
			<point x="735.1793823242" y="839.2352294922"/>
			<point x="659.0494995117" y="883.2352294922"/>
			<point x="591.3512573242" y="883.2352294922" type="qcurve" smooth="yes"/>
			<point x="385.6164550781" y="883.2352294922"/>
			<point x="155.3847045898" y="504.079284668"/>
		</contour>
	</outline>
	<anchor name="bottom" x="594" y="0"/>
	<anchor name="top" x="594" y="1000"/>
</glyph>
<glyph name="s" format="2">
	<unicode hex="0073"/>
	<advance width="805"/>
	<outline>
		<contour>
			<point x="-23.8363647461" y="142" type="qcurve" smooth="yes"/>
			<point x="-23.8363647461" y="207"/>
			<point x="71.7425537109" y="242"/>
			<point x="130.3592529297" y="242" type="qcurve" smooth="yes"/>
			<point x="153.4366455078" y="242" type="line"/>
			<point x="153.4366455078" y="155" type="line" smooth="yes"/>
			<point x="153.4366455078" y="127.791015625"/>
			<point x="235.9186401367" y="97.996887207"/>
			<point x="313.9877319336" y="97.996887207" type="qcurve" smooth="yes"/>
			<point x="414.6329956055" y="97.996887207"/>
			<point x="535.8941040039" y="227.4359741211"/>
			<point x="535.8941040039" y="268.2911987305" type="qcurve" smooth="yes"/>
			<point x="535.8941040039" y="306.8116455078"/>
			<point x="469.9412231445" y="386.8128051758"/>
			<point x="341.4633789062" y="465.6392822266" type="qcurve" smooth="yes"/>
			<point x="206.1623535156" y="559.486328125"/>
			<point x="130.6000976562" y="686.242980957"/>
			<point x="132.2539672852" y="767.532043457" type="qcurve" smooth="yes"/>
			<point x="133.9078369141" y="869.6412353516"/>
			<point x="309.3460083008" y="1025.6276855469"/>
			<point x="469.1350708008" y="1025.6276855469" type="qcurve" smooth="yes"/>
			<point x="596.4247436523" y="1025.6276855469"/>
			<point x="730.862487793" y="940.0557861328"/>
			<point x="730.862487793" y="879.0557861328" type="qcurve" smooth="yes"/>
			<point x="730.862487793" y="840.0557861328"/>
			<point x="672.3999633789" y="807.0557861328"/>
			<point x="613.0142211914" y="807.0557861328" type="qcurve" smooth="yes"/>
			<point x="577.9752197266" y="807.0557861328" type="line"/>
			<point x="559.0130004883" y="925.7870483398" type="line" smooth="yes"/>
			<point x="559.0130004883" y="884.7323608398"/>
			<point x="492.3724365234" y="916.2084960938"/>
			<point x="440.1415405273" y="916.2084960938" type="qcurve" smooth="yes"/>
			<point x="352.7070922852" y="916.2084960938"/>
			<point x="272.9714355469" y="821.0104980469"/>
			<point x="272.9714355469" y="778.462890625" type="qcurve" smooth="yes"/>
			<point x="272.9714355469" y="760.0352172852"/>
			<point x="338.8674316406" y="688.6332397461"/>
			<point x="434.2333984375" y="616.7517700195" type="qcurve" smooth="yes"/>
			<point x="548.0748901367" y="537.9405517578"/>
			<point x="673.8535766602" y="402.6327514648"/>
			<point x="673.8535766602" y="310.4463500977" type="qcurve"/>
			<point x="676.5001220703" y="170.7216186523"/>
			<point x="467.7908935547" y="-18.1432495117"/>
			<point x="245.1372680664" y="-18.1432495117" type="qcurve" smooth="yes"/>
			<point x="126.7305908203" y="-18.1432495117"/>
			<point x="-23.8363647461" y="74"/>
		</contour>
	</outline>
	<anchor name="bottom" x="282" y="0"/>
	<anchor name="top" x="446" y="1000"/>
</glyph>
<glyph name="t" format="2">
	<unicode hex="0074"/>
	<advance width="448"/>
	<outline>
		<contour>
			<point x="78.146484375" y="-13" type="line"/>
			<point x="3.1830444336" y="38" type="line"/>
			<point x="101.1830444336" y="503" type="line"/>
			<point x="170.5405273438" y="902.7781982422" type="line"/>
			<point x="42.7969360352" y="901.0091552734" type="line"/>
			<point x="41.6807250977" y="971.5211181641" type="line"/>
			<point x="155.5780029297" y="969.2127685547"/>
			<point x="286.3116455078" y="1286.8585205078"/>
			<point x="289.1409301758" y="1294.0557861328" type="qcurve"/>
			<point x="371.5079956055" y="1294.0557861328" type="line"/>
			<point x="398.2008666992" y="1268.7858276367" type="line"/>
			<point x="248.3786621094" y="486" type="line"/>
			<point x="193.8376464844" y="128.2281494141" type="line"/>
			<point x="347.8118896484" y="170.2281494141" type="line"/>
			<point x="347.8118896484" y="89" type="line"/>
		</contour>
		<contour>
			<point x="262.5392456055" y="922.9859619141" type="line"/>
			<point x="293.5626831055" y="1006.7537841797" type="line"/>
			<point x="562.086730957" y="1034.9632568359" type="line"/>
			<point x="561.2727661133" y="933.9859619141" type="line"/>
		</contour>
	</outline>
	<anchor name="bottom" x="149" y="0"/>
	<anchor name="center" x="262" y="622"/>
	<anchor name="top" x="322" y="1179"/>
	<anchor name="topright" x="600" y="920"/>
</glyph>
<glyph name="u" format="2">
	<unicode hex="0075"/>
	<advance width="1053"/>
	<outline>
		<contour>
			<point x="730.9221801758" y="-6" type="line"/>
			<point x="672.3828735352" y="136.9250488281" type="line"/>
			<point x="694.9078979492" y="354.9538574219" type="line"/>
			<point x="800.5889892578" y="904.4937744141" type="line"/>
			<point x="798.28125" y="971.0708618164" type="line"/>
			<point x="958.9771728516" y="1000.1098632812" type="line"/>
			<point x="984.4774780273" y="980.1098632812" type="line"/>
			<point x="817.5437011719" y="197" type="line"/>
			<point x="814.8298339844" y="135.1373291016" type="line"/>
			<point x="971.7724609375" y="164.1373291016" type="line"/>
			<point x="973.4997558594" y="76" type="line"/>
		</contour>
		<contour>
			<point x="75.2892456055" y="313" type="qcurve" smooth="yes"/>
			<point x="178.3182373047" y="863.1997070312" type="line"/>
			<point x="52.6938476562" y="865.1997070312" type="line"/>
			<point x="54.4211425781" y="963.1098632812" type="line"/>
			<point x="244.8055419922" y="1000.1098632812" type="line"/>
			<point x="300.3064575195" y="1000.1098632812" type="line"/>
			<point x="344.7689819336" y="928.4541625977" type="line"/>
			<point x="220.6677246094" y="253.6047363281" type="line" smooth="yes"/>
			<point x="205.3965454102" y="181.046875"/>
			<point x="312.9743652344" y="123.6518554688"/>
			<point x="406.59375" y="123.6518554688" type="qcurve" smooth="yes"/>
			<point x="521.9728393555" y="123.6518554688"/>
			<point x="699.9994506836" y="311.7621459961"/>
			<point x="800.8052368164" y="491.8651123047" type="qcurve"/>
			<point x="786.6121826172" y="349.760925293" type="line"/>
			<point x="696.698059082" y="175.7239379883"/>
			<point x="446.5673217773" y="-7"/>
			<point x="304.8479614258" y="-7" type="qcurve" smooth="yes"/>
			<point x="162.2579345703" y="-7"/>
			<point x="42.5153808594" y="140.5248413086"/>
		</contour>
	</outline>
	<anchor name="bottom" x="404" y="0"/>
	<anchor name="ogonek" x="871" y="20"/>
	<anchor name="top" x="572" y="1000"/>
	<anchor name="topright" x="915" y="1000"/>
	<anchor name="cy_descender" x="1018" y="134"/>
</glyph>
<glyph name="v" format="2">
	<unicode hex="0076"/>
	<advance width="905"/>
	<outline>
		<contour>
			<point x="233.0174560547" y="8.8569335938" type="line"/>
			<point x="185.5004882812" y="492.6444702148" type="line"/>
			<point x="163.0759887695" y="844.75" type="line"/>
			<point x="16.481262207" y="850.2045898438" type="line"/>
			<point x="18.2085571289" y="948.9783935547" type="line"/>
			<point x="246.5983886719" y="999.0557861328" type="line"/>
			<point x="310.8305664062" y="999.0557861328" type="line"/>
			<point x="329.1560668945" y="547.2482910156" type="line"/>
			<point x="353.9595947266" y="246.6547851562" type="line"/>
			<point x="352.0895385742" y="176.2033081055" type="line"/>
			<point x="355.8623657227" y="176.2033081055" type="line"/>
			<point x="419.3946533203" y="255.7423095703" type="line"/>
			<point x="613.9567871094" y="489.0110473633"/>
			<point x="711.4486694336" y="649.0892333984"/>
			<point x="711.4486694336" y="721.0780029297" type="qcurve" smooth="yes"/>
			<point x="711.4486694336" y="808.2012329102"/>
			<point x="644.5110473633" y="932.6513671875"/>
			<point x="597.5110473633" y="966.5004882812" type="qcurve" smooth="yes"/>
			<point x="619.5110473633" y="990.2177124023"/>
			<point x="695.2862548828" y="1036.4877319336"/>
			<point x="729.5280761719" y="1036.4877319336" type="qcurve" smooth="yes"/>
			<point x="769.3399047852" y="1036.4877319336"/>
			<point x="860.8849487305" y="949.4370727539"/>
			<point x="860.8849487305" y="861.4463500977" type="qcurve" smooth="yes"/>
			<point x="860.8849487305" y="755.1428833008"/>
			<point x="561.9623413086" y="274.8623657227"/>
			<point x="318.6267700195" y="-9.1430664062" type="qcurve"/>
		</contour>
	</outline>
	<anchor name="bottom" x="513" y="0"/>
	<anchor name="top" x="513" y="1000"/>
</glyph>
<glyph name="x" format="2">
	<unicode hex="0078"/>
	<advance width="906"/>
	<outline>
		<contour>
			<point x="187.7489624023" y="-1.7145996094" type="qcurve"/>
			<point x="78.049621582" y="35.2854003906" type="line"/>
			<point x="89.2770385742" y="130.3319091797" type="line"/>
			<point x="150.5680541992" y="130.3319091797" type="line" smooth="yes"/>
			<point x="216.5805053711" y="129.9117431641"/>
			<point x="251.2752685547" y="167.5390014648"/>
			<point x="244.1841430664" y="165.354675293" type="qcurve" smooth="yes"/>
			<point x="280.733215332" y="211.9896240234"/>
			<point x="422.0165405273" y="464.2654418945"/>
			<point x="439.7255859375" y="512.5230712891" type="qcurve"/>
			<point x="336.3734741211" y="864.7365722656" type="line"/>
			<point x="163.2484741211" y="863.2819824219" type="line"/>
			<point x="164.975769043" y="962.0557861328" type="line"/>
			<point x="395.2462158203" y="999.0557861328" type="line"/>
			<point x="467.7477416992" y="979.0557861328" type="line"/>
			<point x="515.5209960938" y="762.8463134766" type="line"/>
			<point x="520.7650146484" y="695.5317382812" type="line"/>
			<point x="521.7650146484" y="695.5317382812" type="line"/>
			<point x="549.9703979492" y="761.1800537109" type="line" smooth="yes"/>
			<point x="612.4532470703" y="877.7780761719"/>
			<point x="606.4573364258" y="907.2612915039"/>
			<point x="620.5163574219" y="927.8498535156" type="qcurve" smooth="yes"/>
			<point x="643.4715576172" y="964.0161743164"/>
			<point x="751.7725219727" y="1017.3415527344"/>
			<point x="795.557800293" y="1017.3415527344" type="qcurve" smooth="yes"/>
			<point x="832.1929931641" y="1017.3415527344"/>
			<point x="858.09765625" y="956.3415527344"/>
			<point x="858.09765625" y="922.3415527344" type="qcurve" smooth="yes"/>
			<point x="858.09765625" y="885.3415527344"/>
			<point x="821.6522216797" y="823.3415527344"/>
			<point x="798.6522216797" y="817.3415527344" type="qcurve"/>
			<point x="781.6522216797" y="828.3415527344" type="line"/>
			<point x="779.5609741211" y="869.5668945312" type="line" smooth="yes"/>
			<point x="775.6557617188" y="869.9226074219"/>
			<point x="767.2254638672" y="895.759765625"/>
			<point x="767.9845581055" y="895.759765625" type="qcurve" smooth="yes"/>
			<point x="754.4712524414" y="895.759765625"/>
			<point x="684.2326049805" y="825.205078125"/>
			<point x="645.2290039062" y="768.8275146484" type="qcurve" smooth="yes"/>
			<point x="604.391784668" y="711.8005981445"/>
			<point x="593.7503662109" y="656.1421508789"/>
			<point x="560.1512451172" y="570.1347045898" type="qcurve"/>
			<point x="703.001159668" y="120.4292602539" type="line"/>
			<point x="899.6715698242" y="149.4292602539" type="line"/>
			<point x="899.6715698242" y="60.4282836914" type="line"/>
			<point x="630.6038818359" y="-18.5216064453" type="line"/>
			<point x="570.9871826172" y="13.4783935547" type="line"/>
			<point x="483.6083984375" y="312.828918457" type="line"/>
			<point x="471.9095458984" y="383.435546875" type="line"/>
			<point x="470.9095458984" y="383.435546875" type="line"/>
			<point x="441.4268798828" y="313.8688354492" type="line"/>
			<point x="450.7690429688" y="305.2112426758"/>
			<point x="431.5765991211" y="210.0809326172"/>
			<point x="394.4013671875" y="146.2813720703" type="qcurve" smooth="yes"/>
			<point x="350.4943237305" y="75.9055786133"/>
			<point x="250.237487793" y="-20.7612304688"/>
		</contour>
	</outline>
	<anchor name="bottom" x="522" y="0"/>
	<anchor name="top" x="522" y="1000"/>
	<anchor name="cy_descender" x="832" y="134"/>
	<anchor name="center" x="432" y="502"/>
</glyph>
<glyph name="y" format="2">
	<unicode hex="0079"/>
	<advance width="987"/>
	<outline>
		<contour>
			<point x="-190.5255126953" y="-373.5" type="line"/>
			<point x="-189.5255126953" y="-356.5" type="line"/>
			<point x="-100.3128051758" y="-354.5" type="line" smooth="yes"/>
			<point x="-11.5633544922" y="-352.5"/>
			<point x="155.9060058594" y="-231.9157104492"/>
			<point x="232.286315918" y="-136.2271728516" type="qcurve" smooth="yes"/>
			<point x="366.4106445312" y="30" type="line"/>
			<point x="328.6549682617" y="30" type="line"/>
			<point x="289.5024414062" y="261.2832641602"/>
			<point x="225.3344726562" y="758.2819824219"/>
			<point x="202.6924438477" y="861.2819824219" type="qcurve"/>
			<point x="41.2494506836" y="863.2819824219" type="line"/>
			<point x="42.9767456055" y="962.0557861328" type="line"/>
			<point x="286.0168457031" y="999.0557861328" type="line"/>
			<point x="349.9412841797" y="999.0557861328" type="line"/>
			<point x="360.9412841797" y="974.0557861328" type="line"/>
			<point x="459.4224853516" y="207.6173706055" type="line"/>
			<point x="465.2952270508" y="135.1011962891" type="line"/>
			<point x="466.2952270508" y="135.1011962891" type="line"/>
			<point x="517.2561645508" y="209.2701416016" type="line" smooth="yes"/>
			<point x="713.3187866211" y="489.782409668"/>
			<point x="762.9802246094" y="702.5785522461"/>
			<point x="762.9802246094" y="847.5253295898" type="qcurve" smooth="yes"/>
			<point x="763.9802246094" y="872.5253295898"/>
			<point x="712.6607666016" y="955.5253295898"/>
			<point x="669.6607666016" y="980.5253295898" type="qcurve" smooth="yes"/>
			<point x="686.6607666016" y="991.5253295898"/>
			<point x="750.0842895508" y="1003.5253295898"/>
			<point x="771.9691162109" y="1003.5253295898" type="qcurve" smooth="yes"/>
			<point x="814.0465087891" y="1003.5253295898"/>
			<point x="884.5155639648" y="960.5253295898"/>
			<point x="884.5155639648" y="933.5253295898" type="qcurve" smooth="yes"/>
			<point x="884.5155639648" y="817.6578369141"/>
			<point x="723.2736816406" y="320.3651123047"/>
			<point x="388.5838012695" y="-77.0413208008" type="qcurve" smooth="yes"/>
			<point x="329.7303466797" y="-149.2094726562" type="line" smooth="yes"/>
			<point x="161.9381103516" y="-343.7091064453"/>
			<point x="-21.2003173828" y="-394.5"/>
			<point x="-104.6457519531" y="-400.5" type="qcurve"/>
		</contour>
	</outline>
	<anchor name="bottom" x="782" y="0"/>
	<anchor name="top" x="504" y="1000"/>
</glyph>
<glyph name="z" format="2">
	<unicode hex="007A"/>
	<advance width="561"/>
	<outline>
		<contour>
			<point x="-91.8262939453" y="13.8371582031" type="line"/>
			<point x="-148.9982910156" y="94.1398925781" type="line"/>
			<point x="-76.0822143555" y="160.6748046875"/>
			<point x="144.7614135742" y="460.985168457"/>
			<point x="212.7350463867" y="553.1473999023" type="qcurve" smooth="yes"/>
			<point x="302.6781616211" y="665.1473999023"/>
			<point x="367.9592895508" y="757.8921508789"/>
			<point x="393.4364013672" y="833.7833862305" type="qcurve"/>
			<point x="135.6194458008" y="831.1679077148" type="line"/>
			<point x="91.3279418945" y="795.0584716797" type="line"/>
			<point x="-16.882019043" y="795.0584716797" type="line"/>
			<point x="39.4107055664" y="968.0557861328" type="line"/>
			<point x="66.4107055664" y="987.0557861328" type="line"/>
			<point x="595.6412963867" y="976.0557861328" type="line"/>
			<point x="610.083190918" y="906.7764892578" type="line"/>
			<point x="572.1567382812" y="818.7764892578"/>
			<point x="428.4215698242" y="618.595703125"/>
			<point x="337.750793457" y="501.0686645508" type="qcurve" smooth="yes"/>
			<point x="271.8086547852" y="410.9064331055"/>
			<point x="143.8965454102" y="241.7006225586"/>
			<point x="93.2850341797" y="186.5145874023" type="qcurve"/>
			<point x="411.4130249023" y="148.2707519531" type="line"/>
			<point x="439.1756591797" y="242.455078125" type="line"/>
			<point x="526.8116455078" y="217.6472167969" type="line"/>
			<point x="454.516418457" y="0" type="line"/>
			<point x="418.516418457" y="-19" type="line"/>
			<point x="5.6622314453" y="72.744140625" type="line"/>
		</contour>
	</outline>
	<anchor name="bottom" x="443" y="0"/>
	<anchor name="top" x="463" y="1000"/>
	<anchor name="_liga" x="0" y="0"/>
</glyph>
<glyph name="idotless" format="2">
	<unicode hex="0131"/>
	<advance width="508"/>
	<outline>
		<contour>
			<point x="121.7208251953" y="-6" type="line"/>
			<point x="58.8353881836" y="109.9250488281" type="line"/>
			<point x="161.4983520508" y="590.7442016602" type="line"/>
			<point x="204.8766479492" y="861.2819824219" type="line"/>
			<point x="85.8432006836" y="863.2819824219" type="line"/>
			<point x="87.5704956055" y="962.0557861328" type="line"/>
			<point x="278.6471557617" y="999.0557861328" type="line"/>
			<point x="326.3022460938" y="999.0557861328" type="line"/>
			<point x="386.1109008789" y="905.8223876953" type="line"/>
			<point x="355.3034667969" y="804.0557861328" type="line"/>
			<point x="288.2710571289" y="459.3974609375" type="line"/>
			<point x="226.7130126953" y="136.0009765625" type="line"/>
			<point x="382.6067504883" y="165.0009765625" type="line"/>
			<point x="382.6067504883" y="76" type="line"/>
		</contour>
	</outline>
	<anchor name="bottom" x="180" y="0"/>
	<anchor name="top" x="320" y="1000"/>
	<anchor name="ogonek" x="180" y="0"/>
	<anchor name="yu_dash" x="239" y="498"/>
	<anchor name="liga" x="618" y="0"/>
</glyph>
